<svg width="24" height="24" viewBox="0 0 24 24" fill="none" xmlns="http://www.w3.org/2000/svg">
<rect y="21.5" width="24" height="2" rx="1" fill="#4C526A"/>
<path fill-rule="evenodd" clip-rule="evenodd" d="M13 1.5C13 0.947715 12.5523 0.5 12 0.5C11.4477 0.5 11 0.947715 11 1.5V14.3258L5.65081 9.74074C5.23148 9.38132 4.60018 9.42988 4.24076 9.84921C3.88134 10.2685 3.9299 10.8998 4.34923 11.2593L11.0889 17.0361C11.6132 17.4855 12.3868 17.4855 12.9111 17.0361L19.6508 11.2593C20.0701 10.8998 20.1187 10.2685 19.7593 9.84921C19.3999 9.42988 18.7686 9.38132 18.3492 9.74074L13 14.3258V1.5Z" fill="#4C526A"/>
</svg>
