<svg width="38" height="38" viewBox="0 0 38 38" fill="none" xmlns="http://www.w3.org/2000/svg">
<rect width="38" height="38" rx="5" fill="#030B27"/>
<path d="M33 9.30029L27.4286 27.9732H22.7143L18.9714 14.6775L15.0571 27.9732L10.3714 28L5 9.30029C5 9.30029 7.66139 8.92255 9.28571 9.30029C15.3042 10.6999 6.60207 23.6079 12.8 23.7999C19.0482 23.9935 10.7944 10.7284 16.8571 9.30029C18.5452 8.90265 19.6277 8.89717 21.3143 9.30029C27.3189 10.7355 18.9467 23.8215 25.1429 23.7197C31.3131 23.6183 22.6998 10.7055 28.6857 9.30029C30.32 8.91664 33 9.30029 33 9.30029Z" fill="white"/>
</svg>
